HIERARCHY
ROOT Hips
{
  OFFSET 0 0 0
  CHANNELS 6 Xposition Yposition Zposition Zrotation Yrotation Xrotation
  JOINT LeftThigh
  {
    OFFSET 8.409438 0 -5.917753
    CHANNELS 3 Zrotation Yrotation Xrotation
    JOINT LeftLeg
    {
      OFFSET 0 0 -42.358652
      CHANNELS 3 Zrotation Yrotation Xrotation
      JOINT LeftFoot
      {
        OFFSET 0 0 -39.357303
        CHANNELS 3 Zrotation Yrotation Xrotation
      }
    }
  }
  JOINT RightThigh
  {
    OFFSET -8.409438 0 -5.917753
    CHANNELS 3 Zrotation Yrotation Xrotation
    JOINT RightLeg
    {
      OFFSET 0 0 -42.358652
      CHANNELS 3 Zrotation Yrotation Xrotation
      JOINT RightFoot
      {
        OFFSET 0 0 -39.357303
        CHANNELS 3 Zrotation Yrotation Xrotation
      }
    }
  }
  JOINT SpineLow
  {
    OFFSET 0 0 4.719101
    CHANNELS 3 Zrotation Yrotation Xrotation
    JOINT SpineMid
    {
      OFFSET 0 0 12.899191
      CHANNELS 3 Zrotation Yrotation Xrotation
      JOINT Chest
      {
        OFFSET 0 0 12.899191
        CHANNELS 3 Zrotation Yrotation Xrotation
        JOINT LeftShoulder
        {
          OFFSET 7.550562 1.41573 9.438202
          CHANNELS 3 Zrotation Yrotation Xrotation
          JOINT LeftArm
          {
            OFFSET 9.155056 0 4.247191
            CHANNELS 3 Zrotation Yrotation Xrotation
            JOINT LeftForearm
            {
              OFFSET 0 0 25.771955
              CHANNELS 3 Zrotation Yrotation Xrotation
              JOINT LeftHand
              {
                OFFSET 0 0 25.197169
                CHANNELS 3 Zrotation Yrotation Xrotation
              }
            }
          }
        }
        JOINT RightShoulder
        {
          OFFSET -7.550562 1.41573 9.438202
          CHANNELS 3 Zrotation Yrotation Xrotation
          JOINT RightArm
          {
            OFFSET -9.155056 0 4.247191
            CHANNELS 3 Zrotation Yrotation Xrotation
            JOINT RightForearm
            {
              OFFSET 0 0 -25.771955
              CHANNELS 3 Zrotation Yrotation Xrotation
              JOINT RightHand
              {
                OFFSET 0 0 -25.197169
                CHANNELS 3 Zrotation Yrotation Xrotation
              }
            }
          }
        }
        JOINT Neck
        {
          OFFSET 0 0 15.101124
          CHANNELS 3 Zrotation Yrotation Xrotation
          JOINT Head
          {
            OFFSET 0 0 11.325843
            CHANNELS 3 Zrotation Yrotation Xrotation
            End Site
            {
              OFFSET 0 0 14.157303
            }
          }
        }
      }
    }
  }
}
MOTION
Frames: 16
Frame Time: 0.0
0.0  89.887642  0.0  6.733334  -51.824662  -105.765851  41.489526  -40.52371  -42.24834  22.425487  36.463826  76.615917  -2.411219  0.216939  1.618618  -26.496886  24.546662  -32.106107  16.004035  10.832377  60.00557  4.353213  0.093692  -2.948689  0.724567  0.362239  0.798895  1.992378  0.965986  2.19447  1.992378  0.965986  2.19447  -3.921307  20.565799  15.072294  -102.638772  42.704083  -66.290154  -38.026395  19.185687  73.46818  77.715518  -6.788245  8.426333  3.984799  -2.609241  23.239272  120.918532  38.188648  35.451426  -19.435178  -7.207953  -90.80209  91.337366  5.843502  -24.614096  18.029934  1.203465  12.177572  13.504423  1.263989  9.106792  
0.0  89.887642  0.0  6.618419  -51.869934  -105.695484  41.331094  -40.658772  -42.218926  22.487661  36.378987  76.614484  -2.371017  0.214948  1.637921  -26.155107  24.499667  -31.885595  15.829081  10.941575  60.033311  4.355992  0.090641  -2.916669  0.703647  0.340254  0.781586  1.934225  0.90711  2.146203  1.934225  0.90711  2.146203  -3.78765  20.592274  15.171285  -102.607187  42.679743  -66.308106  -38.220762  19.319356  73.282376  77.585382  -6.740026  8.488827  4.172044  -2.498413  23.410761  120.986172  38.270247  35.493397  -19.423151  -7.449298  -90.807559  91.149989  5.711433  -24.493131  18.093718  1.253554  12.259285  13.551161  1.305329  9.166566  
0.0  89.887642  0.0  6.640432  -51.991834  -105.717658  41.286483  -40.741692  -42.166924  22.575914  36.231947  76.684065  -2.399989  0.192634  1.612039  -25.645629  24.567667  -31.715363  15.614849  10.965178  60.065183  4.454333  0.242798  -2.968621  0.704877  0.343118  0.776834  1.937618  0.915036  2.133317  1.937618  0.915036  2.133317  -3.642464  20.52714  15.226231  -102.431797  42.594442  -66.404254  -38.458701  19.322294  73.018232  77.058839  -6.805692  8.953202  4.120559  -2.525005  23.421944  121.337468  38.184328  35.678249  -19.611684  -7.666708  -90.718078  90.984827  5.55718  -24.423464  18.161894  1.280499  12.262638  13.60175  1.327049  9.168199  
0.0  89.887642  0.0  6.631188  -52.076933  -105.720155  41.265377  -40.810237  -42.163944  22.626453  36.144446  76.728245  -2.374527  0.180849  1.604889  -25.411147  24.601896  -31.612924  15.45236  11.001514  60.05997  4.458499  0.239053  -2.956294  0.71471  0.3504  0.781486  1.964798  0.93448  2.146387  1.964797  0.93448  2.146387  -3.644693  20.41816  15.229844  -102.415077  42.612865  -66.373655  -38.535473  19.378554  72.965273  76.97062  -6.691116  9.20026  4.233099  -2.542996  23.403766  121.306449  38.205891  35.728059  -19.596986  -7.854495  -90.670377  90.901315  5.395886  -24.291328  18.14778  1.262363  12.239814  13.591562  1.312459  9.151628  
0.0  89.887642  0.0  6.713115  -52.096571  -105.785314  41.228599  -40.809337  -42.109088  22.614156  36.05352  76.747211  -2.41866  0.171337  1.578451  -25.214695  24.711076  -31.57412  15.278085  11.070384  60.027754  4.621172  0.273295  -2.962356  0.715202  0.375372  0.785133  1.967021  1.002598  2.15712  1.967021  1.002598  2.15712  -3.462461  20.31255  15.274492  -102.255715  42.618261  -66.366935  -38.595302  19.090848  72.836768  76.470577  -6.698193  9.780024  4.186782  -2.636576  23.310772  121.442653  38.054584  35.82289  -19.816906  -7.987475  -90.534057  90.837871  5.292192  -24.344808  18.189249  1.22344  12.202184  13.623526  1.282937  9.124517  
0.0  89.887642  0.0  6.720217  -52.060448  -105.824556  41.200079  -40.821184  -42.080447  22.573719  36.028862  76.724505  -2.387904  0.169273  1.598494  -25.423345  24.720298  -31.618214  15.369662  11.026275  59.976006  4.679782  0.247949  -2.931633  0.728785  0.392977  0.78625  2.004749  1.05023  2.160922  2.00475  1.05023  2.160922  -3.517338  20.194615  15.346411  -102.215869  42.744267  -66.255539  -38.429153  18.849574  72.904991  76.582628  -6.638301  9.838638  4.178655  -2.670082  23.278512  121.220098  38.00692  35.763331  -19.746337  -8.044825  -90.48309  90.840548  5.240081  -24.257528  18.096614  1.135589  12.196881  13.555848  1.214925  9.123277  
0.0  89.887642  0.0  6.68884  -51.947219  -105.811845  41.10913  -40.837212  -42.07429  22.599307  35.925775  76.776296  -2.438119  0.158181  1.582273  -26.080635  24.589099  -31.734006  15.64142  10.938401  59.824174  4.84786  0.355686  -2.960117  0.702243  0.40104  0.785529  1.932462  1.073154  2.158776  1.932462  1.073154  2.158777  -3.273307  20.171274  15.437342  -102.095684  42.874572  -66.160358  -38.221539  18.627235  73.040411  76.662348  -6.594083  9.839296  4.196747  -2.673018  23.202457  121.024543  37.934552  35.701231  -19.681798  -8.07659  -90.404773  90.877708  5.115074  -24.049227  18.17224  1.100827  12.201473  13.61331  1.190478  9.127716  
0.0  89.887642  0.0  6.610181  -51.858698  -105.789374  41.123929  -40.87058  -42.087324  22.5409  35.936803  76.742769  -2.420028  0.148585  1.595792  -26.36979  24.547484  -31.741241  15.797486  10.807261  59.760076  4.833369  0.346902  -2.920766  0.713587  0.411337  0.793862  1.963947  1.100674  2.182048  1.963947  1.100674  2.182048  -3.340303  20.075574  15.472992  -102.101174  43.071584  -66.038084  -37.98683  18.317671  73.136588  76.703183  -6.522341  9.717382  4.17686  -2.678715  23.113813  120.72831  37.872008  35.610539  -19.645173  -8.027565  -90.377706  90.874125  5.087545  -23.854945  18.064475  1.028879  12.169694  13.533956  1.133321  9.106103  
0.0  89.887642  0.0  6.582944  -51.854597  -105.797609  41.228372  -40.900767  -42.095386  22.490956  35.934487  76.705893  -2.447168  0.135746  1.601808  -26.801862  24.432287  -31.754196  16.093694  10.640286  59.586862  4.878104  0.430605  -2.908596  0.723363  0.421427  0.808017  1.991245  1.127496  2.22121  1.991245  1.127496  2.221209  -3.27781  19.985556  15.461057  -102.136689  43.24224  -65.967316  -37.830483  18.30909  73.224152  76.69145  -6.444281  9.587541  4.161255  -2.711712  22.972771  120.328135  37.884055  35.475021  -19.551176  -7.928754  -90.334691  90.811887  5.056538  -23.615058  18.067475  1.001741  12.118567  13.536796  1.111478  9.068531  
0.0  89.887642  0.0  6.437447  -51.75578  -105.652881  41.32981  -40.914472  -42.193726  22.418851  35.96599  76.629544  -2.46197  0.124661  1.631401  -26.94618  24.394349  -31.715956  16.087208  10.560164  59.516201  4.853663  0.409939  -2.854279  0.734547  0.428818  0.815406  2.022195  1.14709  2.241827  2.022195  1.14709  2.241827  -3.370208  19.860633  15.422158  -102.218916  43.423502  -65.941407  -37.819307  18.437584  73.211231  76.668298  -6.41215  9.531916  4.180257  -2.752378  22.820806  120.002121  37.807402  35.392644  -19.641523  -7.822045  -90.341623  90.734028  4.996863  -23.347695  17.969687  0.958459  12.055019  13.464342  1.075133  9.022174  
0.0  89.887642  0.0  6.394605  -51.738691  -105.582391  41.505514  -40.905781  -42.261341  22.338976  36.021808  76.534906  -2.4562  0.138748  1.663146  -27.254274  24.319996  -31.71612  16.241119  10.467783  59.35846  4.973474  0.517278  -2.868224  0.760342  0.442445  0.829874  2.093426  1.18299  2.282256  2.093426  1.18299  2.282256  -3.538467  19.702122  15.315479  -102.324334  43.496658  -66.052683  -37.778598  18.352901  73.032054  76.3165  -6.480689  9.663825  4.298647  -2.873957  22.670504  119.408372  37.862869  35.258821  -19.683961  -7.709456  -90.341684  90.623675  4.945238  -23.203019  17.928234  0.945607  11.965082  13.433545  1.062003  8.955057  
0.0  89.887642  0.0  6.298261  -51.665704  -105.46234  41.672707  -40.899243  -42.365103  22.260436  36.103181  76.442209  -2.446433  0.126066  1.700083  -27.294382  24.348382  -31.650534  16.11967  10.442738  59.26286  4.95026  0.506226  -2.796681  0.779984  0.448806  0.831878  2.147374  1.199625  2.28829  2.147374  1.199625  2.288289  -3.648369  19.572348  15.314232  -102.498803  43.592716  -66.176974  -37.792063  18.509387  73.02261  76.315276  -6.38004  9.707221  4.359917  -2.95747  22.602137  119.019688  37.854276  35.209891  -19.84037  -7.639793  -90.401368  90.522372  4.910416  -23.032486  17.822599  0.914807  11.923408  13.354925  1.03556  8.924739  
0.0  89.887642  0.0  6.293895  -51.594773  -105.400891  41.791159  -40.860546  -42.424282  22.198801  36.192793  76.35194  -2.449924  0.09967  1.715476  -27.321866  24.393436  -31.586525  16.012757  10.455794  59.145426  5.014173  0.61719  -2.805396  0.782463  0.458008  0.817646  2.154217  1.225152  2.249741  2.154217  1.225152  2.249742  -3.649285  19.455693  15.404258  -102.661253  43.605204  -66.403546  -37.739978  18.2828  72.921825  76.648605  -5.943121  9.798846  4.631563  -3.00725  22.764195  118.355594  38.100136  35.011857  -19.873407  -7.53301  -90.479818  90.404112  4.88785  -22.835596  17.839806  0.903773  11.941444  13.36805  1.028142  8.938598  
0.0  89.887642  0.0  6.22645  -51.501599  -105.310439  41.910583  -40.867717  -42.517374  22.181162  36.261071  76.304461  -2.444527  0.084822  1.749618  -27.395432  24.421053  -31.527572  15.937421  10.477856  59.0314  4.975759  0.587861  -2.694075  0.791064  0.45201  0.793803  2.177088  1.209254  2.184524  2.177088  1.209254  2.184524  -3.606002  19.413888  15.593783  -102.896414  43.629984  -66.611738  -37.685399  18.293164  72.990154  76.673246  -5.836918  9.765568  4.756753  -3.00757  22.935086  117.783966  38.24669  34.833178  -20.098096  -7.397342  -90.619513  90.283903  4.897877  -22.650524  17.764692  0.878002  12.012912  13.312179  1.009393  8.993048  
0.0  89.887642  0.0  6.126373  -51.307732  -105.169456  41.928404  -40.864578  -42.63717  22.13188  36.366625  76.21804  -2.444759  0.095033  1.786748  -27.846672  24.356375  -31.515132  15.879373  10.501031  58.857506  5.071505  0.733854  -2.668145  0.732506  0.433403  0.75188  2.015676  1.161635  2.068295  2.015676  1.161635  2.068295  -3.1488  19.471607  15.877304  -103.105525  43.57598  -66.883248  -37.684508  17.981362  72.885789  77.114987  -5.340213  9.689629  5.175521  -3.000971  23.252589  117.037225  38.510228  34.553575  -20.28427  -7.145685  -90.770787  90.120306  4.903532  -22.38646  17.94578  0.912326  12.147058  13.447302  1.042724  9.092662  
0.0  89.887642  0.0  5.982904  -51.12999  -105.038334  41.985015  -40.888859  -42.777869  22.117974  36.412883  76.207872  -2.47757  0.081335  1.813766  -27.956902  24.37907  -31.352523  15.82425  10.489276  58.697175  4.975215  0.71879  -2.55712  0.720468  0.410149  0.713811  1.981403  1.09961  1.963317  1.981403  1.09961  1.963317  -2.983836  19.516417  16.169742  -103.382429  43.552341  -67.123432  -37.627569  18.081788  73.001912  77.185618  -5.162082  9.365629  5.358454  -2.978246  23.550076  116.207141  38.808028  34.226559  -20.658888  -6.881868  -91.017794  89.924976  4.918687  -22.048113  17.888473  0.901077  12.274865  13.404477  1.036887  9.188975  
